<?xml version="1.0" encoding="UTF-8" standalone="no"?>
<!-- Created with Inkscape (http://www.inkscape.org/) -->

<svg
   xmlns:dc="http://purl.org/dc/elements/1.1/"
   xmlns:cc="http://creativecommons.org/ns#"
   xmlns:rdf="http://www.w3.org/1999/02/22-rdf-syntax-ns#"
   xmlns:svg="http://www.w3.org/2000/svg"
   xmlns="http://www.w3.org/2000/svg"
   xmlns:sodipodi="http://sodipodi.sourceforge.net/DTD/sodipodi-0.dtd"
   xmlns:inkscape="http://www.inkscape.org/namespaces/inkscape"
   width="155mm"
   height="115mm"
   id="svg5421"
   version="1.1"
   inkscape:version="0.91 r13725"
   viewBox="0 0 549.21258 407.48031"
   sodipodi:docname="engine.svg">
  <sodipodi:namedview
     id="base"
     pagecolor="#ffffff"
     bordercolor="#666666"
     borderopacity="1.0"
     inkscape:pageopacity="0.0"
     inkscape:pageshadow="2"
     inkscape:zoom="1"
     inkscape:cx="47.963957"
     inkscape:cy="306.57985"
     inkscape:current-layer="g6383"
     inkscape:document-units="px"
     showgrid="true"
     inkscape:window-width="1680"
     inkscape:window-height="984"
     inkscape:window-x="0"
     inkscape:window-y="27"
     inkscape:window-maximized="1"
     showborder="true"
     inkscape:showpageshadow="true"
     fit-margin-top="0"
     fit-margin-left="0"
     fit-margin-right="0"
     fit-margin-bottom="0"
     units="mm">
    <inkscape:grid
       originy="-170.61584"
       originx="-125.71355"
       id="grid6157"
       type="xygrid" />
  </sodipodi:namedview>
  <defs
     id="defs5423" />
  <metadata
     id="metadata5426">
    <rdf:RDF>
      <cc:Work
         rdf:about="">
        <dc:format>image/svg+xml</dc:format>
        <dc:type
           rdf:resource="http://purl.org/dc/dcmitype/StillImage" />
        <dc:title />
      </cc:Work>
    </rdf:RDF>
  </metadata>
  <g
     transform="translate(-125.71355,-189.90385)"
     inkscape:groupmode="layer"
     inkscape:label="Layer 1"
     id="layer1">
    <g
       id="g6383"
       inkscape:label="Gear10"
       transform="translate(481.38097,444.76607)">
      <path
         inkscape:connector-curvature="0"
         style="fill:none;fill-opacity:1;stroke:#000000;stroke-width:2;stroke-miterlimit:4;stroke-dasharray:none;stroke-opacity:1"
         d="m -98.790803,-118.54995 -8.501557,1.50019 -3.27161,13.80882 0.24089,7.0657 1.58143,5.56938 -13.76647,5.01361 -2.37016,-5.28566 -4.3557,-5.56551 -11.37683,-8.47649 -7.47579,4.31792 1.64748,14.09252 2.64215,6.56046 3.3882,4.69491 -11.22144,9.41703 -4.03318,-4.15469 -5.99927,-3.74272 -13.58771,-4.06918 -5.54856,6.61486 6.36841,12.67782 4.72481,5.25847 4.79086,3.25303 -7.32423,12.689485 -5.2105,-2.526237 -6.91627,-1.461342 -14.16278,0.823958 -2.953,8.115046 10.31999,9.73574 6.23627,3.322972 5.61849,1.418579 -2.54501,14.430667 -5.76226,-0.590761 -6.99786,0.991069 -13.0243,5.619912 0,8.631963 13.0243,5.619912 6.99786,0.991049 5.76226,-0.590741 2.54501,14.430647 -5.61849,1.418579 -6.23627,3.322972 -10.31999,9.73574 2.953,8.115066 14.16278,0.823938 6.91627,-1.461342 5.2105,-2.526236 7.32423,12.689485 -4.79086,3.253027 -4.72481,5.258467 -6.36841,12.677825 5.54856,6.614862 13.58771,-4.069184 5.99927,-3.742721 4.03318,-4.15469 11.22144,9.417037 -3.3882,4.694928 -2.64215,6.560439 -1.64748,14.09252 7.47579,4.31404 11.37683,-8.47261 4.3557,-5.56551 2.37016,-5.28567 13.76647,5.01363 -1.58143,5.56937 -0.24089,7.0657 3.27161,13.80882 8.501557,1.4963 7.79439,-11.85388 2.19144,-6.71979 0.41576,-5.77927 14.65235,0 0.41964,5.77927 2.18756,6.71979 7.79827,11.85388 8.49765,-1.4963 3.27162,-13.80882 -0.24089,-7.0657 -1.58141,-5.56937 13.766448,-5.01363 2.370184,5.28567 4.35568,5.56551 11.380729,8.47261 7.475786,-4.31404 -1.647478,-14.09252 -2.642174,-6.560439 -3.392057,-4.694928 11.221418,-9.417037 4.0331994,4.15469 5.99925696,3.742721 13.58772264,4.069184 5.548541,-6.614862 -6.364511,-12.677825 -4.7248106,-5.258467 -4.794739,-3.253027 7.3281126,-12.689485 5.210502,2.526236 6.916249,1.461342 14.158898,-0.823938 2.953018,-8.115066 -10.316104,-9.73574 -6.240174,-3.322972 -5.614608,-1.418579 2.545032,-14.430647 5.758362,0.590741 7.001734,-0.991049 13.024326,-5.619912 0,-8.631963 -13.024326,-5.619912 -7.001734,-0.991069 -5.758362,0.590761 -2.545032,-14.430667 5.614608,-1.418579 6.240174,-3.322972 10.316104,-9.73574 -2.953018,-8.115046 -14.158898,-0.823958 -6.916249,1.461342 -5.210502,2.526237 -7.3281126,-12.689485 4.794739,-3.25303 4.7248106,-5.25847 6.364511,-12.67782 -5.548541,-6.61486 -13.58772264,4.06918 -5.99925696,3.74272 -4.0331994,4.15469 -11.221418,-9.41703 3.392057,-4.69491 2.642174,-6.56046 1.647478,-14.09252 -7.475786,-4.31792 -11.380729,8.47649 -4.35568,5.56551 -2.370184,5.28566 -13.766448,-5.01361 1.58141,-5.56938 0.24089,-7.0657 -3.27162,-13.80882 -8.49765,-1.50019 -7.79827,11.85777 -2.18756,6.71981 -0.41964,5.77924 -14.65235,0 -0.41576,-5.77924 -2.19144,-6.71981 -7.79439,-11.85777 z m 17.7297,50.81237 a 74.60229,74.621209 0 0 1 41.101191,12.40579 l -29.440691,29.448172 a 34.814402,34.823231 0 0 0 -11.6605,-2.055983 34.814402,34.823231 0 0 0 -11.66049,2.052083 L -122.1623,-55.33567 a 74.60229,74.621209 0 0 1 41.101197,-12.40191 z m 62.207432,33.5057 A 74.60229,74.621209 0 0 1 -6.4588086,6.88363 74.60229,74.621209 0 0 1 -18.85755,47.995259 L -48.302143,18.543203 a 34.814402,34.823231 0 0 0 2.05545,-11.659573 34.814402,34.823231 0 0 0 -2.04769,-11.667335 l 29.440712,-29.448175 z m -124.407099,0.004 29.44459,29.452056 a 34.814402,34.823231 0 0 0 -2.05932,11.659554 34.814402,34.823231 0 0 0 2.05157,11.667354 l -29.44071,29.448156 a 74.60229,74.621209 0 0 1 -12.39875,-41.11551 74.60229,74.621209 0 0 1 12.40262,-41.11161 z m 62.199667,27.182318 a 13.925761,13.929292 0 0 1 13.92577,13.929292 13.925761,13.929292 0 0 1 -13.92577,13.929292 13.925761,13.929292 0 0 1 -13.92576,-13.929292 13.925761,13.929292 0 0 1 13.92576,-13.929292 z m -11.65661,46.696559 a 34.814402,34.823231 0 0 0 11.65661,2.055964 34.814402,34.823231 0 0 0 11.66438,-2.052083 l 29.44071,29.448175 A 74.60229,74.621209 0 0 1 -81.061103,81.504939 74.60229,74.621209 0 0 1 -122.1584,69.099173 l 29.440687,-29.448176 z"
         id="path5678" />
      <rect
         style="opacity:1;fill:none;fill-opacity:1;stroke:#000000;stroke-width:3;stroke-miterlimit:4;stroke-dasharray:none;stroke-dashoffset:0;stroke-opacity:1"
         id="rect6397"
         width="407.82587"
         height="393.99997"
         x="-284.97403"
         y="-248.12206"
         rx="19.999998"
         ry="19.999998" />
      <text
         xml:space="preserve"
         style="font-style:normal;font-weight:normal;font-size:104.13710022px;line-height:125%;font-family:Sans;text-align:center;letter-spacing:0px;word-spacing:0px;text-anchor:middle;fill:#000000;fill-opacity:1;stroke:none;stroke-width:1px;stroke-linecap:butt;stroke-linejoin:miter;stroke-opacity:1"
         x="-83.410408"
         y="-155.03568"
         id="text6404"
         sodipodi:linespacing="125%"
         transform="scale(0.99987322,1.0001268)"><tspan
           sodipodi:role="line"
           id="tspan6406"
           x="-83.410408"
           y="-155.03568">Engine</tspan></text>
    </g>
  </g>
</svg>
